<svg width="22" height="21" viewBox="0 0 22 21" fill="none" xmlns="http://www.w3.org/2000/svg">
<path d="M4 6.11108H5.55556H18" stroke="#9D0000" stroke-width="2" stroke-linecap="round" stroke-linejoin="round"/>
<path d="M16.4444 6.11111V17C16.4444 17.4126 16.2805 17.8082 15.9888 18.0999C15.6971 18.3917 15.3014 18.5556 14.8889 18.5556H7.1111C6.69854 18.5556 6.30288 18.3917 6.01115 18.0999C5.71943 17.8082 5.55554 17.4126 5.55554 17V6.11111M7.88888 6.11111V4.55556C7.88888 4.143 8.05276 3.74733 8.34449 3.45561C8.63621 3.16389 9.03187 3 9.44443 3H12.5555C12.9681 3 13.3638 3.16389 13.6555 3.45561C13.9472 3.74733 14.1111 4.143 14.1111 4.55556V6.11111" stroke="#9D0000" stroke-width="2" stroke-linecap="round" stroke-linejoin="round"/>
<path d="M9.44446 10V14.6667" stroke="#9D0000" stroke-width="2" stroke-linecap="round" stroke-linejoin="round"/>
<path d="M12.5555 10V14.6667" stroke="#9D0000" stroke-width="2" stroke-linecap="round" stroke-linejoin="round"/>
</svg>
